#!OML:ASF H:\MichaelJackson\Top Level 1\Subject 1\Session 1\male.ASF
:FULLY-SPECIFIED
:DEGREES
1186
root 0.760784 15.7164 35.3893 9.29171 0.133711 1.18373
lowerback -2.43789 0.819708 -0.12539
upperback -2.28391 1.07429 -4.13097
thorax -0.901706 0.509608 -4.16596
lowerneck -6.04091 -1.85651 4.11465
upperneck 0.699854 -2.9019 5.18078
head 1.25039 -1.33373 0.838717
rclavicle 8.94531e-016 -7.95139e-016
rhumerus -0.106639 -21.9353 -2.04739
rradius 26.8982
rwrist -6.76199
rhand -36.9015 -48.4971
rfingers 7.12502
rthumb -9.97962 -438.241
lclavicle 8.94531e-016 -7.95139e-016
lhumerus -55.479 -44.1379 118.063
lradius 50.98
lwrist 22.6703
lhand 38.1621 25.7269
lfingers 7.12502
lthumb 60.855 38.5772
rfemur -18.9671 -3.87333 -7.45857
rtibia 27.9155
rfoot -6.89808 -10.5473
rtoes -41.2875
lfemur -5.90169 -22.9694 4.96825
ltibia 13.954
lfoot -23.3968 12.1284
ltoes -30.9877
1187
root 0.762273 15.7154 35.382 9.24827 0.124945 1.27488
lowerback -2.44237 0.826367 -0.230444
upperback -2.27369 1.08516 -4.14917
thorax -0.889453 0.516471 -4.12498
lowerneck -6.04863 -1.86015 4.10504
upperneck 0.734493 -2.90868 5.18471
head 1.26312 -1.33577 0.841198
rclavicle 6.75868e-015 1.27222e-014
rhumerus -0.133832 -21.9672 -2.05035
rradius 26.8972
rwrist -6.74985
rhand -36.8471 -48.4853
rfingers 7.12502
rthumb -9.92713 -438.231
lclavicle 6.75868e-015 1.27222e-014
lhumerus -55.4795 -44.1794 118.073
lradius 51.0143
lwrist 22.6647
lhand 38.1492 25.6944
lfingers 7.12502
lthumb 60.844 38.5571
rfemur -18.9546 -3.90654 -7.56811
rtibia 27.9281
rfoot -6.90479 -10.4988
rtoes -41.2853
lfemur -5.86237 -23.0636 4.85497
ltibia 13.9174
lfoot -23.3572 12.1936
ltoes -30.9819
1188
root 0.763602 15.7143 35.3748 9.19386 0.115126 1.34497
lowerback -2.43125 0.833899 -0.316328
upperback -2.26218 1.09659 -4.16082
thorax -0.884375 0.523345 -4.08829
lowerneck -6.05753 -1.86287 4.09283
upperneck 0.766444 -2.9141 5.19293
head 1.27532 -1.33713 0.84549
rclavicle -3.52843e-015 1.74931e-014
rhumerus -0.157515 -22.0071 -2.05613
rradius 26.8874
rwrist -6.72166
rhand -36.7826 -48.4539
rfingers 7.12502
rthumb -9.86492 -438.203
lclavicle -3.52843e-015 1.74931e-014
lhumerus -55.4799 -44.215 118.08
lradius 51.0497
lwrist 22.6595
lhand 38.1409 25.6674
lfingers 7.12502
lthumb 60.837 38.538
rfemur -18.9338 -3.91502 -7.65485
rtibia 27.9415
rfoot -6.90968 -10.4647
rtoes -41.2784
lfemur -5.80862 -23.1536 4.75956
ltibia 13.8812
lfoot -23.3202 12.2604
ltoes -30.9832
1189
root 0.764768 15.7132 35.3675 9.12834 0.109089 1.38928
lowerback -2.40289 0.840427 -0.375362
upperback -2.24986 1.10584 -4.16589
thorax -0.887946 0.528764 -4.06026
lowerneck -6.06978 -1.86311 4.07958
upperneck 0.799549 -2.91651 5.20514
head 1.28856 -1.33683 0.851265
rclavicle -5.41688e-015 -4.6118e-014
rhumerus -0.175157 -22.0457 -2.0686
rradius 26.8679
rwrist -6.67552
rhand -36.7187 -48.4132
rfingers 7.12502
rthumb -9.80321 -438.165
lclavicle -5.41688e-015 -4.6118e-014
lhumerus -55.4804 -44.2387 118.081
lradius 51.085
lwrist 22.6535
lhand 38.1423 25.6467
lfingers 7.12502
lthumb 60.8381 38.5159
rfemur -18.9012 -3.90078 -7.71245
rtibia 27.9542
rfoot -6.91106 -10.4484
rtoes -41.2688
lfemur -5.7442 -23.2175 4.69035
ltibia 13.8456
lfoot -23.2944 12.3014
ltoes -30.9909
1190
root 0.765809 15.712 35.3604 9.05549 0.108395 1.40634
lowerback -2.36386 0.844114 -0.406531
upperback -2.23725 1.11061 -4.1625
thorax -0.89713 0.531597 -4.03947
lowerneck -6.08559 -1.86007 4.06786
upperneck 0.836196 -2.91506 5.21503
head 1.30347 -1.33446 0.856138
rclavicle 1.19768e-014 -7.15625e-015
rhumerus -0.185921 -22.0635 -2.08665
rradius 26.8474
rwrist -6.63596
rhand -36.6674 -48.3975
rfingers 7.12502
rthumb -9.75374 -438.152
lclavicle 1.19768e-014 -7.15625e-015
lhumerus -55.4774 -44.2433 118.075
lradius 51.1151
lwrist 22.648
lhand 38.1437 25.6268
lfingers 7.12502
lthumb 60.8394 38.4947
rfemur -18.8592 -3.86395 -7.73943
rtibia 27.9658
rfoot -6.90922 -10.4509
rtoes -41.2532
lfemur -5.67478 -23.2448 4.65168
ltibia 13.8107
lfoot -23.2821 12.3046
ltoes -31.0015
1191
root 0.766857 15.7109 35.3534 8.98329 0.115888 1.41016
lowerback -2.32194 0.844115 -0.421398
upperback -2.22489 1.11013 -4.15529
thorax -0.908337 0.531601 -4.02408
lowerneck -6.1075 -1.85422 4.05742
upperneck 0.874253 -2.91035 5.22299
head 1.31982 -1.33036 0.86024
rclavicle 5.11871e-015 8.74653e-015
rhumerus -0.191574 -22.0747 -2.10952
rradius 26.8229
rwrist -6.58247
rhand -36.6202 -48.3697
rfingers 7.12502
rthumb -9.7082 -438.126
lclavicle 5.11871e-015 8.74653e-015
lhumerus -55.4689 -44.2331 118.064
lradius 51.1377
lwrist 22.6446
lhand 38.1514 25.6119
lfingers 7.12502
lthumb 60.8459 38.4725
rfemur -18.8131 -3.8193 -7.75113
rtibia 27.9765
rfoot -6.90582 -10.4656
rtoes -41.2283
lfemur -5.61225 -23.2349 4.63273
ltibia 13.7769
lfoot -23.2834 12.2627
ltoes -31.0109
1192
root 0.767837 15.7098 35.3465 8.91386 0.131412 1.40189
lowerback -2.27788 0.84007 -0.421515
upperback -2.21466 1.10391 -4.14516
thorax -0.923085 0.528516 -4.01416
lowerneck -6.13153 -1.84553 4.0482
upperneck 0.912172 -2.90204 5.23005
head 1.33645 -1.32444 0.86395
rclavicle -1.04362e-014 -3.18055e-015
rhumerus -0.193087 -22.081 -2.1383
rradius 26.7958
rwrist -6.51582
rhand -36.5769 -48.3094
rfingers 7.12502
rthumb -9.66646 -438.068
lclavicle -1.04362e-014 -3.18055e-015
lhumerus -55.4574 -44.2068 118.048
lradius 51.1521
lwrist 22.6407
lhand 38.1599 25.5988
lfingers 7.12502
lthumb 60.8531 38.4512
rfemur -18.7655 -3.76933 -7.74836
rtibia 27.9865
rfoot -6.8971 -10.491
rtoes -41.2026
lfemur -5.56043 -23.1869 4.63377
ltibia 13.7461
lfoot -23.2987 12.175
ltoes -31.0162
1193
root 0.768665 15.7088 35.3399 8.84955 0.154649 1.3883
lowerback -2.2396 0.832523 -0.416508
upperback -2.20338 1.09316 -4.13297
thorax -0.933777 0.52315 -4.00496
lowerneck -6.15649 -1.83504 4.03866
upperneck 0.942733 -2.89096 5.23806
head 1.35089 -1.31736 0.86811
rclavicle -1.23743e-014 2.3059e-014
rhumerus -0.195848 -22.0685 -2.16841
rradius 26.7785
rwrist -6.48155
rhand -36.5625 -48.2533
rfingers 7.12502
rthumb -9.65256 -438.012
lclavicle -1.23743e-014 2.3059e-014
lhumerus -55.436 -44.1727 118.026
lradius 51.1576
lwrist 22.6385
lhand 38.1711 25.5909
lfingers 7.12502
lthumb 60.8626 38.4326
rfemur -18.7185 -3.71946 -7.73859
rtibia 27.9967
rfoot -6.88675 -10.5231
rtoes -41.1682
lfemur -5.52266 -23.1046 4.64811
ltibia 13.7206
lfoot -23.3264 12.0445
ltoes -31.0194
1194
root 0.769365 15.7079 35.3336 8.79287 0.183295 1.36967
lowerback -2.20944 0.822854 -0.405868
upperback -2.19273 1.07972 -4.11984
thorax -0.940648 0.516398 -3.99788
lowerneck -6.17976 -1.82456 4.03032
upperneck 0.966066 -2.87944 5.24561
head 1.36268 -1.31034 0.871978
rclavicle 5.46658e-016 4.45278e-014
rhumerus -0.204614 -22.0365 -2.19722
rradius 26.7713
rwrist -6.4781
rhand -36.5704 -48.1781
rfingers 7.12502
rthumb -9.66013 -437.937
lclavicle 5.46658e-016 4.45278e-014
lhumerus -55.409 -44.1334 118.002
lradius 51.1561
lwrist 22.6352
lhand 38.1844 25.5849
lfingers 7.12502
lthumb 60.8738 38.4139
rfemur -18.6765 -3.67479 -7.72213
rtibia 28.0078
rfoot -6.87401 -10.556
rtoes -41.134
lfemur -5.50091 -22.9987 4.67479
ltibia 13.7028
lfoot -23.3648 11.8836
ltoes -31.0157
1195
root 0.769879 15.7071 35.3277 8.74346 0.215416 1.35012
lowerback -2.18877 0.812298 -0.395774
upperback -2.18197 1.06539 -4.10694
thorax -0.942151 0.509243 -3.99058
lowerneck -6.19913 -1.81571 4.02471
upperneck 0.980223 -2.86945 5.25233
head 1.37079 -1.30446 0.875139
rclavicle 5.76476e-015 7.95139e-015
rhumerus -0.215803 -22.0069 -2.2254
rradius 26.7637
rwrist -6.46935
rhand -36.5777 -48.083
rfingers 7.12502
rthumb -9.6672 -437.841
lclavicle 5.76476e-015 7.95139e-015
lhumerus -55.3758 -44.0934 117.976
lradius 51.1492
lwrist 22.6278
lhand 38.1982 25.5777
lfingers 7.12502
lthumb 60.8855 38.3936
rfemur -18.6402 -3.63837 -7.70354
rtibia 28.0207
rfoot -6.86038 -10.5853
rtoes -41.0991
lfemur -5.49368 -22.8828 4.70767
ltibia 13.6943
lfoot -23.4096 11.7074
ltoes -31.0053
1196
root 0.77018 15.7064 35.3221 8.69988 0.245195 1.33171
lowerback -2.17664 0.803707 -0.388564
upperback -2.17067 1.05397 -4.09546
thorax -0.938139 0.503627 -3.98292
lowerneck -6.2197 -1.80962 4.01732
upperneck 0.989778 -2.86293 5.26253
head 1.37776 -1.30038 0.879593
rclavicle 1.7344e-014 -2.54444e-014
rhumerus -0.236585 -21.9667 -2.24727
rradius 26.7593
rwrist -6.46844
rhand -36.5966 -48.002
rfingers 7.12502
rthumb -9.68545 -437.759
lclavicle 1.7344e-014 -2.54444e-014
lhumerus -55.3374 -44.0595 117.951
lradius 51.1389
lwrist 22.6178
lhand 38.2133 25.5768
lfingers 7.12502
lthumb 60.8983 38.3783
rfemur -18.6118 -3.61038 -7.68542
rtibia 28.0362
rfoot -6.847 -10.6063
rtoes -41.0672
lfemur -5.49521 -22.7754 4.74073
ltibia 13.6962
lfoot -23.4545 11.5402
ltoes -30.9887
